HIERARCHY
ROOT Hips
{
	OFFSET -0.001795 -0.223333 0.028219
	CHANNELS 6 Xposition Yposition Zposition Zrotation Yrotation Xrotation 
	JOINT LeftUpLeg
	{
		OFFSET 0.069520 -0.091406 -0.006815
		CHANNELS 3 Zrotation Yrotation Xrotation
		JOINT LeftLeg
		{
			OFFSET 0.034277 -0.375199 -0.004496
			CHANNELS 3 Zrotation Yrotation Xrotation
			JOINT LeftFoot
			{
				OFFSET -0.013596 -0.397961 -0.043693
				CHANNELS 3 Zrotation Yrotation Xrotation
				JOINT LeftToe
				{
					OFFSET 0.026358 -0.055791 0.119288
					CHANNELS 3 Zrotation Yrotation Xrotation
					End Site
					{
						OFFSET 0.000000 0.000000 0.000000
					}
				}
			}
		}
	}
	JOINT RightUpLeg
	{
		OFFSET -0.067670 -0.090522 -0.004320
		CHANNELS 3 Zrotation Yrotation Xrotation
		JOINT RightLeg
		{
			OFFSET -0.038290 -0.382569 -0.008850
			CHANNELS 3 Zrotation Yrotation Xrotation
			JOINT RightFoot
			{
				OFFSET 0.015774 -0.398415 -0.042312
				CHANNELS 3 Zrotation Yrotation Xrotation
				JOINT RightToe
				{
					OFFSET -0.025372 -0.048144 0.123348
					CHANNELS 3 Zrotation Yrotation Xrotation
					End Site
					{
						OFFSET 0.000000 0.000000 0.000000
					}
				}
			}
		}
	}
	JOINT Spine
	{
		OFFSET -0.002533 0.108963 -0.026696
		CHANNELS 3 Zrotation Yrotation Xrotation
		JOINT Spine1
		{
			OFFSET 0.005487 0.135180 0.001092
			CHANNELS 3 Zrotation Yrotation Xrotation
			JOINT Spine2
			{
				OFFSET 0.001457 0.052922 0.025425
				CHANNELS 3 Zrotation Yrotation Xrotation
				JOINT Neck
				{
					OFFSET -0.002778 0.213870 -0.042857
					CHANNELS 3 Zrotation Yrotation Xrotation
					JOINT Head
					{
						OFFSET 0.005152 0.064970 0.051349
						CHANNELS 3 Zrotation Yrotation Xrotation
						End Site
						{
							OFFSET 0.000000 0.000000 0.000000
						}
					}
				}
				JOINT LeftShoulder
				{
					OFFSET 0.078845 0.121749 -0.034090
					CHANNELS 3 Zrotation Yrotation Xrotation
					JOINT LeftArm
					{
						OFFSET 0.090977 0.030469 -0.008868
						CHANNELS 3 Zrotation Yrotation Xrotation
						JOINT LeftForeArm
						{
							OFFSET 0.259612 -0.012772 -0.027456
							CHANNELS 3 Zrotation Yrotation Xrotation
							JOINT LeftHand
							{
								OFFSET 0.249234 0.008986 -0.001171
								CHANNELS 3 Zrotation Yrotation Xrotation
								End Site
								{
									OFFSET 0.000000 0.000000 0.000000
								}
							}
						}
					}
				}
				JOINT RightShoulder
				{
					OFFSET -0.081759 0.118833 -0.038615
					CHANNELS 3 Zrotation Yrotation Xrotation
					JOINT RightArm
					{
						OFFSET -0.096012 0.032551 -0.009143
						CHANNELS 3 Zrotation Yrotation Xrotation
						JOINT RightForeArm
						{
							OFFSET -0.253742 -0.013329 -0.021401
							CHANNELS 3 Zrotation Yrotation Xrotation
							JOINT RightHand
							{
								OFFSET -0.255298 0.007772 -0.005559
								CHANNELS 3 Zrotation Yrotation Xrotation
								End Site
								{
									OFFSET 0.000000 0.000000 0.000000
								}
							}
						}
					}
				}
			}
		}
	}
}
MOTION
Frames: 10
Frame Time: 0.050000
0.063644 0.951088 -0.077235 -2.326615 -4.708346 5.106772 5.214636 -0.589973 -12.413362 0.950398 -0.307781 5.281270 -2.350293 -1.285702 8.347422 0.000000 0.000000 0.000000 -5.365383 1.082576 -14.627641 -2.469599 0.882820 9.480525 0.735706 -6.822030 19.395003 0.000000 0.000000 0.000000 2.726051 -0.823762 12.456508 -4.160134 2.127446 4.226721 -3.036772 8.474041 8.259143 4.937459 -4.607105 2.889403 0.000000 0.000000 0.000000 -5.045103 -20.234686 6.864170 -35.218302 -18.675360 0.729141 2.119751 -23.168053 0.200001 0.000000 0.000000 0.000000 5.802250 20.352324 8.748828 41.776449 23.706249 3.511594 11.946783 35.174635 5.306332 0.000000 0.000000 0.000000 
0.065102 0.951485 -0.077558 -2.309425 -4.697791 5.024372 5.222738 -0.599719 -12.722700 0.732403 -0.293301 5.917687 -2.358807 -1.285930 8.375910 0.000000 0.000000 0.000000 -5.457956 1.081821 -14.753442 -2.200052 0.872233 10.026544 0.339240 -7.352199 19.020065 0.000000 0.000000 0.000000 2.409162 -0.751582 11.906902 -3.551474 1.819965 4.532928 -2.556920 8.203966 7.593276 5.558038 -4.933389 1.931328 0.000000 0.000000 0.000000 -5.191248 -19.218128 6.499914 -33.683527 -19.781305 0.980642 5.304506 -21.124654 -0.392427 0.000000 0.000000 0.000000 6.423344 18.946906 8.207798 40.075915 22.991050 3.042879 7.815183 36.225267 4.169042 0.000000 0.000000 0.000000 
0.066476 0.951422 -0.077470 -2.258203 -4.354985 4.763554 5.152655 -0.615189 -12.833933 0.591631 -0.289626 6.482664 -2.499109 -1.550795 8.256930 0.000000 0.000000 0.000000 -5.612844 1.039232 -14.456071 -2.006462 0.834978 10.056729 -0.048839 -7.968792 19.189107 0.000000 0.000000 0.000000 2.404507 -0.717179 11.236690 -3.066928 1.560937 4.553212 -2.072338 7.452386 7.038284 5.255222 -4.662112 1.935541 0.000000 0.000000 0.000000 -5.021477 -17.444654 5.865955 -32.137559 -21.325015 1.276076 8.728572 -19.470620 -0.931445 0.000000 0.000000 0.000000 6.176844 17.159485 7.282065 38.033422 21.949209 2.492987 2.569560 37.627794 2.626630 0.000000 0.000000 0.000000 
0.067689 0.951654 -0.076797 -2.071085 -4.257407 4.334476 4.898383 -0.624310 -12.447878 0.512128 -0.281608 6.632691 -2.562672 -1.660183 8.238383 0.000000 0.000000 0.000000 -5.689563 0.987767 -13.845020 -1.840602 0.814183 10.221101 -0.774460 -8.909060 18.350426 0.000000 0.000000 0.000000 1.981288 -0.626067 10.509517 -2.409842 1.221110 4.803279 -1.608852 6.818524 6.526723 5.242953 -4.622918 1.837751 0.000000 0.000000 0.000000 -4.113075 -16.188630 5.421654 -29.543320 -22.271672 1.295802 13.618447 -18.049073 -1.639861 0.000000 0.000000 0.000000 5.515003 15.150923 6.229106 34.796093 21.169126 1.949496 -3.697248 37.976801 0.585871 0.000000 0.000000 0.000000 
0.068618 0.951984 -0.075570 -2.039153 -4.378876 3.871931 4.789425 -0.613978 -12.106766 0.496972 -0.292357 7.091355 -2.508547 -1.608872 8.139898 0.000000 0.000000 0.000000 -5.708457 0.950739 -13.314125 -1.797574 0.809646 10.245753 -0.912209 -9.154658 18.344762 0.000000 0.000000 0.000000 1.972340 -0.583507 9.782934 -1.920898 0.965915 4.671616 -1.462035 6.124477 6.054425 4.892584 -4.394230 2.264433 0.000000 0.000000 0.000000 -2.901451 -14.362461 4.783804 -27.036622 -23.377358 1.298373 19.490425 -15.808641 -2.261097 0.000000 0.000000 0.000000 4.524678 13.336462 5.262435 31.580405 20.665640 1.545522 -11.407402 38.105750 -1.951998 0.000000 0.000000 0.000000 
0.069369 0.952227 -0.074016 -1.996257 -4.331854 3.604912 4.483888 -0.627679 -11.765162 0.832293 -0.355446 7.160933 -2.520368 -1.658604 8.055144 0.000000 0.000000 0.000000 -5.674218 0.921381 -12.860492 -1.995068 0.856701 10.388419 -0.888359 -8.970765 17.830149 0.000000 0.000000 0.000000 1.977920 -0.544791 9.056235 -1.558771 0.774503 4.626215 -1.306786 5.471087 5.269661 4.191604 -3.892763 2.931567 0.000000 0.000000 0.000000 -2.044116 -12.838796 4.265428 -23.885582 -23.629844 1.071236 25.868523 -14.912246 -3.002974 0.000000 0.000000 0.000000 3.077472 11.051449 4.160467 27.767860 20.742798 1.269749 -20.224818 37.284819 -4.727819 0.000000 0.000000 0.000000 
0.069672 0.952450 -0.072209 -1.932568 -4.223247 3.283679 4.399057 -0.612658 -11.272935 0.794961 -0.347237 7.076843 -2.580883 -1.778955 8.000031 0.000000 0.000000 0.000000 -5.635090 0.881688 -12.254500 -2.032539 0.846499 10.147348 -1.186748 -9.445024 17.826967 0.000000 0.000000 0.000000 1.981000 -0.510537 8.432655 -1.209138 0.585787 3.934187 -1.046832 4.740758 5.008037 3.419587 -3.207627 2.918942 0.000000 0.000000 0.000000 -1.803513 -11.216594 3.727006 -20.063622 -23.518547 0.681550 30.550883 -13.535851 -3.284988 0.000000 0.000000 0.000000 1.396239 9.214384 3.320237 23.426689 20.656344 0.888204 -29.314860 34.637992 -7.083363 0.000000 0.000000 0.000000 
0.069668 0.952077 -0.070144 -1.819416 -3.988597 3.150121 4.420198 -0.603072 -11.031377 0.524388 -0.300398 7.058289 -2.665208 -1.984933 7.822652 0.000000 0.000000 0.000000 -5.511830 0.856829 -11.807151 -2.135904 0.867705 10.203520 -1.751212 -10.145357 17.021925 0.000000 0.000000 0.000000 1.889120 -0.463341 7.693453 -0.841963 0.392714 3.311185 -0.952431 4.071249 4.647307 2.844994 -2.597381 2.208302 0.000000 0.000000 0.000000 -1.414050 -9.794334 3.255051 -16.718172 -23.304833 0.337943 33.192091 -12.845098 -3.397860 0.000000 0.000000 0.000000 0.052390 7.717057 2.716995 19.134270 20.653528 0.527733 -35.505534 29.932575 -7.612432 0.000000 0.000000 0.000000 
0.068966 0.951482 -0.067992 -1.767228 -3.937006 2.949543 4.541785 -0.584295 -10.872227 0.268022 -0.265155 7.399345 -2.641903 -2.059017 7.532536 0.000000 0.000000 0.000000 -5.357482 0.843824 -11.493751 -2.199044 0.919719 10.775922 -2.051547 -10.332598 15.715921 0.000000 0.000000 0.000000 2.049955 -0.455822 7.320850 -0.632816 0.290320 2.338603 -1.136854 3.940847 4.762124 3.264005 -2.938610 2.100993 0.000000 0.000000 0.000000 -0.994880 -8.835303 2.932127 -13.601647 -22.871119 -0.000179 33.861978 -11.371639 -3.082015 0.000000 0.000000 0.000000 -0.643440 6.316171 2.216835 14.976485 20.311873 0.120879 -38.184366 25.531931 -6.903238 0.000000 0.000000 0.000000 
0.067624 0.950205 -0.065819 -1.892763 -4.041276 2.567805 4.782868 -0.551276 -10.724321 0.207097 -0.275944 8.203761 -2.484485 -2.030685 6.927845 0.000000 0.000000 0.000000 -5.005631 0.852399 -11.348540 -2.316384 1.004248 11.601835 -2.224637 -10.471889 14.989247 0.000000 0.000000 0.000000 2.313904 -0.460546 7.087143 -0.781485 0.366758 1.980356 -0.966360 3.812368 4.562899 2.863341 -2.454522 1.097195 0.000000 0.000000 0.000000 -1.253334 -7.981363 2.631409 -10.964452 -22.724650 -0.244155 33.814423 -10.235383 -2.753665 0.000000 0.000000 0.000000 -1.279247 5.574767 1.961355 12.083808 20.110558 -0.126713 -39.235994 20.812155 -5.611897 0.000000 0.000000 0.000000 
